<?xml version="1.0" encoding="UTF-8"?>
<svg xmlns="http://www.w3.org/2000/svg" viewBox="0 0 1024 1024">
  <path fill="#5BAED6" fill-rule="evenodd" d="M 88.0,264.0 L 224.0,116.0 L 412.0,116.0 L 508.0,216.0 L 520.0,216.0 L 616.0,116.0 L 804.0,116.0 L 940.0,264.0 L 940.0,424.0 L 916.0,500.0 L 884.0,500.0 L 808.0,420.0 L 792.0,420.0 L 752.0,496.0 L 732.0,500.0 L 784.0,412.0 L 784.0,392.0 L 716.0,296.0 L 632.0,152.0 L 616.0,152.0 L 520.0,252.0 L 504.0,252.0 L 412.0,152.0 L 396.0,152.0 L 244.0,392.0 L 244.0,412.0 L 284.0,472.0 L 288.0,496.0 L 276.0,496.0 L 236.0,420.0 L 208.0,428.0 L 140.0,500.0 L 108.0,496.0 L 88.0,428.0 L 88.0,268.0 Z M 112.0,304.0 L 136.0,312.0 L 216.0,396.0 L 216.0,408.0 L 160.0,460.0 L 128.0,472.0 L 112.0,416.0 L 112.0,308.0 Z M 116.0,268.0 L 212.0,164.0 L 224.0,164.0 L 224.0,376.0 L 212.0,376.0 L 116.0,272.0 Z M 168.0,584.0 L 200.0,584.0 L 216.0,612.0 L 284.0,680.0 L 452.0,828.0 L 464.0,828.0 L 464.0,816.0 L 328.0,592.0 L 332.0,580.0 L 344.0,584.0 L 504.0,864.0 L 520.0,868.0 L 688.0,580.0 L 700.0,592.0 L 564.0,828.0 L 576.0,828.0 L 760.0,664.0 L 832.0,580.0 L 864.0,580.0 L 796.0,668.0 L 520.0,912.0 L 504.0,912.0 L 288.0,720.0 L 232.0,668.0 L 168.0,588.0 Z M 236.0,144.0 L 380.0,140.0 L 380.0,160.0 L 252.0,360.0 L 240.0,360.0 L 236.0,312.0 L 236.0,148.0 Z M 648.0,144.0 L 788.0,144.0 L 788.0,356.0 L 768.0,348.0 L 648.0,148.0 Z M 804.0,164.0 L 816.0,164.0 L 908.0,268.0 L 908.0,280.0 L 824.0,368.0 L 804.0,376.0 L 804.0,168.0 Z M 812.0,396.0 L 900.0,308.0 L 912.0,308.0 L 912.0,424.0 L 896.0,472.0 L 868.0,460.0 L 812.0,400.0 Z"/>
  <path fill="#66BB6A" fill-rule="evenodd" d="M 8.0,536.0 L 16.0,528.0 L 300.0,528.0 L 340.0,456.0 L 356.0,452.0 L 396.0,536.0 L 412.0,540.0 L 464.0,292.0 L 484.0,300.0 L 540.0,632.0 L 552.0,632.0 L 612.0,432.0 L 636.0,440.0 L 672.0,528.0 L 1016.0,532.0 L 1008.0,556.0 L 664.0,556.0 L 652.0,548.0 L 632.0,496.0 L 616.0,496.0 L 552.0,716.0 L 532.0,716.0 L 528.0,708.0 L 476.0,396.0 L 464.0,396.0 L 420.0,604.0 L 400.0,604.0 L 356.0,504.0 L 336.0,512.0 L 328.0,536.0 L 308.0,556.0 L 20.0,556.0 L 8.0,540.0 Z"/>
</svg>